<mxfile host="app.diagrams.net" modified="2024-02-15T02:01:25.824Z" agent="Mozilla/5.0 (Windows NT 10.0; Win64; x64) AppleWebKit/537.36 (KHTML, like Gecko) Chrome/121.0.0.0 Safari/537.36" etag="Zsog_W920UBsY-7vJkkb" version="23.1.4" type="device">
  <diagram name="Page-1" id="RW2MT7kxxZEO0JWCjId5">
    <mxGraphModel dx="1323" dy="763" grid="1" gridSize="10" guides="1" tooltips="1" connect="1" arrows="1" fold="1" page="1" pageScale="1" pageWidth="850" pageHeight="1100" math="0" shadow="0">
      <root>
        <mxCell id="0" />
        <mxCell id="1" parent="0" />
        <mxCell id="zSc0FMV9mbpRWpNU0usd-1" value="main" style="swimlane;fontStyle=1;align=center;verticalAlign=top;childLayout=stackLayout;horizontal=1;startSize=26;horizontalStack=0;resizeParent=1;resizeParentMax=0;resizeLast=0;collapsible=1;marginBottom=0;whiteSpace=wrap;html=1;" parent="1" vertex="1">
          <mxGeometry x="290" y="260" width="240" height="100" as="geometry" />
        </mxCell>
        <mxCell id="zSc0FMV9mbpRWpNU0usd-2" value="+ player: Sanity&lt;br&gt;+ player_health:&lt;span style=&quot;background-color: initial;&quot;&gt; &lt;/span&gt;&lt;span style=&quot;background-color: initial;&quot; class=&quot;hljs-string&quot;&gt;Health&lt;/span&gt;&lt;span style=&quot;background-color: initial;&quot;&gt; &lt;br&gt;&lt;/span&gt;&lt;span style=&quot;background-color: initial;&quot; class=&quot;hljs-string&quot;&gt;+ random_encounter: RandomEncounter&lt;br&gt;+&amp;nbsp;&lt;/span&gt;shop:&lt;span style=&quot;background-color: initial;&quot;&gt; &lt;/span&gt;&lt;span style=&quot;background-color: initial;&quot; class=&quot;hljs-string&quot;&gt;Shop&lt;/span&gt;" style="text;strokeColor=none;fillColor=none;align=left;verticalAlign=top;spacingLeft=4;spacingRight=4;overflow=hidden;rotatable=0;points=[[0,0.5],[1,0.5]];portConstraint=eastwest;whiteSpace=wrap;html=1;" parent="zSc0FMV9mbpRWpNU0usd-1" vertex="1">
          <mxGeometry y="26" width="240" height="74" as="geometry" />
        </mxCell>
        <mxCell id="zSc0FMV9mbpRWpNU0usd-5" value="TestImage" style="swimlane;fontStyle=1;align=center;verticalAlign=top;childLayout=stackLayout;horizontal=1;startSize=26;horizontalStack=0;resizeParent=1;resizeParentMax=0;resizeLast=0;collapsible=1;marginBottom=0;whiteSpace=wrap;html=1;" parent="1" vertex="1">
          <mxGeometry x="220" y="48" width="160" height="52" as="geometry" />
        </mxCell>
        <mxCell id="zSc0FMV9mbpRWpNU0usd-6" value="+ image" style="text;strokeColor=none;fillColor=none;align=left;verticalAlign=top;spacingLeft=4;spacingRight=4;overflow=hidden;rotatable=0;points=[[0,0.5],[1,0.5]];portConstraint=eastwest;whiteSpace=wrap;html=1;" parent="zSc0FMV9mbpRWpNU0usd-5" vertex="1">
          <mxGeometry y="26" width="160" height="26" as="geometry" />
        </mxCell>
        <mxCell id="zSc0FMV9mbpRWpNU0usd-9" value="Sanity&lt;br&gt;" style="swimlane;fontStyle=1;align=center;verticalAlign=top;childLayout=stackLayout;horizontal=1;startSize=26;horizontalStack=0;resizeParent=1;resizeParentMax=0;resizeLast=0;collapsible=1;marginBottom=0;whiteSpace=wrap;html=1;" parent="1" vertex="1">
          <mxGeometry x="570" y="150" width="160" height="90" as="geometry" />
        </mxCell>
        <mxCell id="zSc0FMV9mbpRWpNU0usd-10" value="+ Sanity: int&lt;br&gt;+ Sanity_bar: str" style="text;strokeColor=none;fillColor=none;align=left;verticalAlign=top;spacingLeft=4;spacingRight=4;overflow=hidden;rotatable=0;points=[[0,0.5],[1,0.5]];portConstraint=eastwest;whiteSpace=wrap;html=1;" parent="zSc0FMV9mbpRWpNU0usd-9" vertex="1">
          <mxGeometry y="26" width="160" height="34" as="geometry" />
        </mxCell>
        <mxCell id="zSc0FMV9mbpRWpNU0usd-11" value="" style="line;strokeWidth=1;fillColor=none;align=left;verticalAlign=middle;spacingTop=-1;spacingLeft=3;spacingRight=3;rotatable=0;labelPosition=right;points=[];portConstraint=eastwest;strokeColor=inherit;" parent="zSc0FMV9mbpRWpNU0usd-9" vertex="1">
          <mxGeometry y="60" width="160" height="8" as="geometry" />
        </mxCell>
        <mxCell id="zSc0FMV9mbpRWpNU0usd-12" value="+&amp;nbsp;__init__(Sanity)" style="text;strokeColor=none;fillColor=none;align=left;verticalAlign=top;spacingLeft=4;spacingRight=4;overflow=hidden;rotatable=0;points=[[0,0.5],[1,0.5]];portConstraint=eastwest;whiteSpace=wrap;html=1;" parent="zSc0FMV9mbpRWpNU0usd-9" vertex="1">
          <mxGeometry y="68" width="160" height="22" as="geometry" />
        </mxCell>
        <mxCell id="zSc0FMV9mbpRWpNU0usd-13" value="Shop" style="swimlane;fontStyle=1;align=center;verticalAlign=top;childLayout=stackLayout;horizontal=1;startSize=26;horizontalStack=0;resizeParent=1;resizeParentMax=0;resizeLast=0;collapsible=1;marginBottom=0;whiteSpace=wrap;html=1;" parent="1" vertex="1">
          <mxGeometry x="620" y="450" width="160" height="140" as="geometry" />
        </mxCell>
        <mxCell id="zSc0FMV9mbpRWpNU0usd-14" value="+&amp;nbsp; Money: int&lt;br&gt;+&amp;nbsp; sanitypills: int&lt;br&gt;+ bandages: int" style="text;strokeColor=none;fillColor=none;align=left;verticalAlign=top;spacingLeft=4;spacingRight=4;overflow=hidden;rotatable=0;points=[[0,0.5],[1,0.5]];portConstraint=eastwest;whiteSpace=wrap;html=1;" parent="zSc0FMV9mbpRWpNU0usd-13" vertex="1">
          <mxGeometry y="26" width="160" height="54" as="geometry" />
        </mxCell>
        <mxCell id="zSc0FMV9mbpRWpNU0usd-15" value="" style="line;strokeWidth=1;fillColor=none;align=left;verticalAlign=middle;spacingTop=-1;spacingLeft=3;spacingRight=3;rotatable=0;labelPosition=right;points=[];portConstraint=eastwest;strokeColor=inherit;" parent="zSc0FMV9mbpRWpNU0usd-13" vertex="1">
          <mxGeometry y="80" width="160" height="8" as="geometry" />
        </mxCell>
        <mxCell id="zSc0FMV9mbpRWpNU0usd-16" value="+ __init__()&lt;br&gt;+ visitShop()" style="text;strokeColor=none;fillColor=none;align=left;verticalAlign=top;spacingLeft=4;spacingRight=4;overflow=hidden;rotatable=0;points=[[0,0.5],[1,0.5]];portConstraint=eastwest;whiteSpace=wrap;html=1;" parent="zSc0FMV9mbpRWpNU0usd-13" vertex="1">
          <mxGeometry y="88" width="160" height="52" as="geometry" />
        </mxCell>
        <mxCell id="zSc0FMV9mbpRWpNU0usd-17" value="Health" style="swimlane;fontStyle=1;align=center;verticalAlign=top;childLayout=stackLayout;horizontal=1;startSize=26;horizontalStack=0;resizeParent=1;resizeParentMax=0;resizeLast=0;collapsible=1;marginBottom=0;whiteSpace=wrap;html=1;" parent="1" vertex="1">
          <mxGeometry x="80" y="450" width="160" height="90" as="geometry">
            <mxRectangle x="80" y="450" width="80" height="30" as="alternateBounds" />
          </mxGeometry>
        </mxCell>
        <mxCell id="zSc0FMV9mbpRWpNU0usd-18" value="+ Health: int&lt;br&gt;+ Health_bar: str" style="text;strokeColor=none;fillColor=none;align=left;verticalAlign=top;spacingLeft=4;spacingRight=4;overflow=hidden;rotatable=0;points=[[0,0.5],[1,0.5]];portConstraint=eastwest;whiteSpace=wrap;html=1;" parent="zSc0FMV9mbpRWpNU0usd-17" vertex="1">
          <mxGeometry y="26" width="160" height="34" as="geometry" />
        </mxCell>
        <mxCell id="zSc0FMV9mbpRWpNU0usd-19" value="" style="line;strokeWidth=1;fillColor=none;align=left;verticalAlign=middle;spacingTop=-1;spacingLeft=3;spacingRight=3;rotatable=0;labelPosition=right;points=[];portConstraint=eastwest;strokeColor=inherit;" parent="zSc0FMV9mbpRWpNU0usd-17" vertex="1">
          <mxGeometry y="60" width="160" height="8" as="geometry" />
        </mxCell>
        <mxCell id="zSc0FMV9mbpRWpNU0usd-20" value="+ __init__(Health)" style="text;strokeColor=none;fillColor=none;align=left;verticalAlign=top;spacingLeft=4;spacingRight=4;overflow=hidden;rotatable=0;points=[[0,0.5],[1,0.5]];portConstraint=eastwest;whiteSpace=wrap;html=1;" parent="zSc0FMV9mbpRWpNU0usd-17" vertex="1">
          <mxGeometry y="68" width="160" height="22" as="geometry" />
        </mxCell>
        <mxCell id="vewTvjoowjofDjpOEqrn-1" value="Pygame" style="swimlane;fontStyle=1;align=center;verticalAlign=top;childLayout=stackLayout;horizontal=1;startSize=26;horizontalStack=0;resizeParent=1;resizeParentMax=0;resizeLast=0;collapsible=1;marginBottom=0;whiteSpace=wrap;html=1;" vertex="1" parent="1">
          <mxGeometry x="50" y="153" width="160" height="80" as="geometry" />
        </mxCell>
        <mxCell id="vewTvjoowjofDjpOEqrn-2" value="+ screen&lt;br&gt;+ clock&lt;br&gt;+ testImage" style="text;strokeColor=none;fillColor=none;align=left;verticalAlign=top;spacingLeft=4;spacingRight=4;overflow=hidden;rotatable=0;points=[[0,0.5],[1,0.5]];portConstraint=eastwest;whiteSpace=wrap;html=1;" vertex="1" parent="vewTvjoowjofDjpOEqrn-1">
          <mxGeometry y="26" width="160" height="54" as="geometry" />
        </mxCell>
        <mxCell id="vewTvjoowjofDjpOEqrn-5" value="Display" style="swimlane;fontStyle=1;align=center;verticalAlign=top;childLayout=stackLayout;horizontal=1;startSize=26;horizontalStack=0;resizeParent=1;resizeParentMax=0;resizeLast=0;collapsible=1;marginBottom=0;whiteSpace=wrap;html=1;" vertex="1" parent="1">
          <mxGeometry x="30" y="30" width="160" height="88" as="geometry" />
        </mxCell>
        <mxCell id="vewTvjoowjofDjpOEqrn-6" value="+ width&lt;br&gt;+ height" style="text;strokeColor=none;fillColor=none;align=left;verticalAlign=top;spacingLeft=4;spacingRight=4;overflow=hidden;rotatable=0;points=[[0,0.5],[1,0.5]];portConstraint=eastwest;whiteSpace=wrap;html=1;" vertex="1" parent="vewTvjoowjofDjpOEqrn-5">
          <mxGeometry y="26" width="160" height="34" as="geometry" />
        </mxCell>
        <mxCell id="vewTvjoowjofDjpOEqrn-7" value="" style="line;strokeWidth=1;fillColor=none;align=left;verticalAlign=middle;spacingTop=-1;spacingLeft=3;spacingRight=3;rotatable=0;labelPosition=right;points=[];portConstraint=eastwest;strokeColor=inherit;" vertex="1" parent="vewTvjoowjofDjpOEqrn-5">
          <mxGeometry y="60" width="160" height="8" as="geometry" />
        </mxCell>
        <mxCell id="vewTvjoowjofDjpOEqrn-8" value="+ draw_image1()" style="text;strokeColor=none;fillColor=none;align=left;verticalAlign=top;spacingLeft=4;spacingRight=4;overflow=hidden;rotatable=0;points=[[0,0.5],[1,0.5]];portConstraint=eastwest;whiteSpace=wrap;html=1;" vertex="1" parent="vewTvjoowjofDjpOEqrn-5">
          <mxGeometry y="68" width="160" height="20" as="geometry" />
        </mxCell>
        <mxCell id="vewTvjoowjofDjpOEqrn-9" value="" style="endArrow=block;startArrow=block;endFill=1;startFill=1;html=1;rounded=0;exitX=0.625;exitY=1.133;exitDx=0;exitDy=0;exitPerimeter=0;" edge="1" parent="1" source="vewTvjoowjofDjpOEqrn-8" target="vewTvjoowjofDjpOEqrn-1">
          <mxGeometry width="160" relative="1" as="geometry">
            <mxPoint x="250" y="250" as="sourcePoint" />
            <mxPoint x="410" y="250" as="targetPoint" />
          </mxGeometry>
        </mxCell>
        <mxCell id="vewTvjoowjofDjpOEqrn-11" value="" style="endArrow=block;endFill=1;html=1;edgeStyle=orthogonalEdgeStyle;align=left;verticalAlign=top;rounded=0;exitX=1;exitY=0.5;exitDx=0;exitDy=0;entryX=0.438;entryY=-0.008;entryDx=0;entryDy=0;entryPerimeter=0;" edge="1" parent="1" source="vewTvjoowjofDjpOEqrn-2" target="zSc0FMV9mbpRWpNU0usd-1">
          <mxGeometry x="-1" relative="1" as="geometry">
            <mxPoint x="250" y="250" as="sourcePoint" />
            <mxPoint x="410" y="250" as="targetPoint" />
          </mxGeometry>
        </mxCell>
        <mxCell id="vewTvjoowjofDjpOEqrn-13" value="" style="endArrow=block;endFill=1;html=1;edgeStyle=orthogonalEdgeStyle;align=left;verticalAlign=top;rounded=0;exitX=0.504;exitY=1.103;exitDx=0;exitDy=0;entryX=0.863;entryY=-0.016;entryDx=0;entryDy=0;entryPerimeter=0;exitPerimeter=0;" edge="1" parent="1" source="zSc0FMV9mbpRWpNU0usd-6" target="zSc0FMV9mbpRWpNU0usd-1">
          <mxGeometry x="-1" relative="1" as="geometry">
            <mxPoint x="280" y="120" as="sourcePoint" />
            <mxPoint x="480" y="213" as="targetPoint" />
          </mxGeometry>
        </mxCell>
        <mxCell id="vewTvjoowjofDjpOEqrn-15" value="" style="endArrow=block;endFill=1;html=1;edgeStyle=orthogonalEdgeStyle;align=left;verticalAlign=top;rounded=0;exitX=1;exitY=0.5;exitDx=0;exitDy=0;entryX=0.617;entryY=0;entryDx=0;entryDy=0;entryPerimeter=0;" edge="1" parent="1" target="zSc0FMV9mbpRWpNU0usd-1">
          <mxGeometry x="-1" relative="1" as="geometry">
            <mxPoint x="179.5" y="118" as="sourcePoint" />
            <mxPoint x="379.5" y="211" as="targetPoint" />
            <Array as="points">
              <mxPoint x="180" y="120" />
              <mxPoint x="440" y="120" />
              <mxPoint x="440" y="300" />
            </Array>
          </mxGeometry>
        </mxCell>
        <mxCell id="vewTvjoowjofDjpOEqrn-19" value="Inventory" style="swimlane;fontStyle=1;align=center;verticalAlign=top;childLayout=stackLayout;horizontal=1;startSize=26;horizontalStack=0;resizeParent=1;resizeParentMax=0;resizeLast=0;collapsible=1;marginBottom=0;whiteSpace=wrap;html=1;" vertex="1" parent="1">
          <mxGeometry x="360" y="507" width="190" height="110" as="geometry" />
        </mxCell>
        <mxCell id="vewTvjoowjofDjpOEqrn-20" value="+ sanitypills: int&lt;br&gt;+ bandages: int" style="text;strokeColor=none;fillColor=none;align=left;verticalAlign=top;spacingLeft=4;spacingRight=4;overflow=hidden;rotatable=0;points=[[0,0.5],[1,0.5]];portConstraint=eastwest;whiteSpace=wrap;html=1;" vertex="1" parent="vewTvjoowjofDjpOEqrn-19">
          <mxGeometry y="26" width="190" height="34" as="geometry" />
        </mxCell>
        <mxCell id="vewTvjoowjofDjpOEqrn-21" value="" style="line;strokeWidth=1;fillColor=none;align=left;verticalAlign=middle;spacingTop=-1;spacingLeft=3;spacingRight=3;rotatable=0;labelPosition=right;points=[];portConstraint=eastwest;strokeColor=inherit;" vertex="1" parent="vewTvjoowjofDjpOEqrn-19">
          <mxGeometry y="60" width="190" height="8" as="geometry" />
        </mxCell>
        <mxCell id="vewTvjoowjofDjpOEqrn-22" value="+ __init__(sanitypills, bandages)&lt;br&gt;+ displayInventory()" style="text;strokeColor=none;fillColor=none;align=left;verticalAlign=top;spacingLeft=4;spacingRight=4;overflow=hidden;rotatable=0;points=[[0,0.5],[1,0.5]];portConstraint=eastwest;whiteSpace=wrap;html=1;" vertex="1" parent="vewTvjoowjofDjpOEqrn-19">
          <mxGeometry y="68" width="190" height="42" as="geometry" />
        </mxCell>
        <mxCell id="vewTvjoowjofDjpOEqrn-27" value="Random_encounter" style="swimlane;fontStyle=1;align=center;verticalAlign=top;childLayout=stackLayout;horizontal=1;startSize=26;horizontalStack=0;resizeParent=1;resizeParentMax=0;resizeLast=0;collapsible=1;marginBottom=0;whiteSpace=wrap;html=1;" vertex="1" parent="1">
          <mxGeometry x="610" y="290" width="200" height="86" as="geometry" />
        </mxCell>
        <mxCell id="vewTvjoowjofDjpOEqrn-28" value="+ encounters: list" style="text;strokeColor=none;fillColor=none;align=left;verticalAlign=top;spacingLeft=4;spacingRight=4;overflow=hidden;rotatable=0;points=[[0,0.5],[1,0.5]];portConstraint=eastwest;whiteSpace=wrap;html=1;" vertex="1" parent="vewTvjoowjofDjpOEqrn-27">
          <mxGeometry y="26" width="200" height="26" as="geometry" />
        </mxCell>
        <mxCell id="vewTvjoowjofDjpOEqrn-29" value="" style="line;strokeWidth=1;fillColor=none;align=left;verticalAlign=middle;spacingTop=-1;spacingLeft=3;spacingRight=3;rotatable=0;labelPosition=right;points=[];portConstraint=eastwest;strokeColor=inherit;" vertex="1" parent="vewTvjoowjofDjpOEqrn-27">
          <mxGeometry y="52" width="200" height="8" as="geometry" />
        </mxCell>
        <mxCell id="vewTvjoowjofDjpOEqrn-30" value="+ get_random_encounter(Insanity)" style="text;strokeColor=none;fillColor=none;align=left;verticalAlign=top;spacingLeft=4;spacingRight=4;overflow=hidden;rotatable=0;points=[[0,0.5],[1,0.5]];portConstraint=eastwest;whiteSpace=wrap;html=1;" vertex="1" parent="vewTvjoowjofDjpOEqrn-27">
          <mxGeometry y="60" width="200" height="26" as="geometry" />
        </mxCell>
        <mxCell id="vewTvjoowjofDjpOEqrn-31" value="imports" style="endArrow=block;endFill=1;html=1;edgeStyle=orthogonalEdgeStyle;align=left;verticalAlign=top;rounded=0;exitX=0.156;exitY=1.225;exitDx=0;exitDy=0;exitPerimeter=0;entryX=0.863;entryY=0.03;entryDx=0;entryDy=0;entryPerimeter=0;" edge="1" parent="1" source="vewTvjoowjofDjpOEqrn-30" target="vewTvjoowjofDjpOEqrn-19">
          <mxGeometry x="-1" relative="1" as="geometry">
            <mxPoint x="360" y="400" as="sourcePoint" />
            <mxPoint x="520" y="500" as="targetPoint" />
          </mxGeometry>
        </mxCell>
        <mxCell id="vewTvjoowjofDjpOEqrn-33" value="" style="endArrow=block;endFill=1;html=1;edgeStyle=orthogonalEdgeStyle;align=left;verticalAlign=top;rounded=0;exitX=-0.002;exitY=-0.139;exitDx=0;exitDy=0;exitPerimeter=0;entryX=1;entryY=0.25;entryDx=0;entryDy=0;" edge="1" parent="1" source="vewTvjoowjofDjpOEqrn-28" target="zSc0FMV9mbpRWpNU0usd-1">
          <mxGeometry x="-1" relative="1" as="geometry">
            <mxPoint x="500" y="441.05" as="sourcePoint" />
            <mxPoint x="592" y="310.05" as="targetPoint" />
            <Array as="points">
              <mxPoint x="610" y="310" />
              <mxPoint x="506" y="310" />
              <mxPoint x="506" y="321" />
            </Array>
          </mxGeometry>
        </mxCell>
        <mxCell id="vewTvjoowjofDjpOEqrn-38" value="Insanity" style="swimlane;fontStyle=1;align=center;verticalAlign=top;childLayout=stackLayout;horizontal=1;startSize=26;horizontalStack=0;resizeParent=1;resizeParentMax=0;resizeLast=0;collapsible=1;marginBottom=0;whiteSpace=wrap;html=1;" vertex="1" parent="1">
          <mxGeometry x="590" y="40" width="160" height="90" as="geometry" />
        </mxCell>
        <mxCell id="vewTvjoowjofDjpOEqrn-39" value="+ Insanity: int&lt;br&gt;+ Insanity_bar: str" style="text;strokeColor=none;fillColor=none;align=left;verticalAlign=top;spacingLeft=4;spacingRight=4;overflow=hidden;rotatable=0;points=[[0,0.5],[1,0.5]];portConstraint=eastwest;whiteSpace=wrap;html=1;" vertex="1" parent="vewTvjoowjofDjpOEqrn-38">
          <mxGeometry y="26" width="160" height="34" as="geometry" />
        </mxCell>
        <mxCell id="vewTvjoowjofDjpOEqrn-40" value="" style="line;strokeWidth=1;fillColor=none;align=left;verticalAlign=middle;spacingTop=-1;spacingLeft=3;spacingRight=3;rotatable=0;labelPosition=right;points=[];portConstraint=eastwest;strokeColor=inherit;" vertex="1" parent="vewTvjoowjofDjpOEqrn-38">
          <mxGeometry y="60" width="160" height="8" as="geometry" />
        </mxCell>
        <mxCell id="vewTvjoowjofDjpOEqrn-41" value="+&amp;nbsp;__init__(Insanity)" style="text;strokeColor=none;fillColor=none;align=left;verticalAlign=top;spacingLeft=4;spacingRight=4;overflow=hidden;rotatable=0;points=[[0,0.5],[1,0.5]];portConstraint=eastwest;whiteSpace=wrap;html=1;" vertex="1" parent="vewTvjoowjofDjpOEqrn-38">
          <mxGeometry y="68" width="160" height="22" as="geometry" />
        </mxCell>
        <mxCell id="vewTvjoowjofDjpOEqrn-42" value="" style="endArrow=block;endFill=1;html=1;edgeStyle=orthogonalEdgeStyle;align=left;verticalAlign=top;rounded=0;exitX=-0.002;exitY=-0.139;exitDx=0;exitDy=0;exitPerimeter=0;entryX=1;entryY=0;entryDx=0;entryDy=0;" edge="1" parent="1" target="zSc0FMV9mbpRWpNU0usd-1">
          <mxGeometry x="-1" relative="1" as="geometry">
            <mxPoint x="600" y="81" as="sourcePoint" />
            <mxPoint x="496" y="170" as="targetPoint" />
            <Array as="points">
              <mxPoint x="600" y="79" />
              <mxPoint x="490" y="79" />
              <mxPoint x="490" y="300" />
            </Array>
          </mxGeometry>
        </mxCell>
        <mxCell id="vewTvjoowjofDjpOEqrn-43" value="" style="endArrow=block;endFill=1;html=1;edgeStyle=orthogonalEdgeStyle;align=left;verticalAlign=top;rounded=0;exitX=0;exitY=0.5;exitDx=0;exitDy=0;entryX=0.75;entryY=0;entryDx=0;entryDy=0;" edge="1" parent="1" source="zSc0FMV9mbpRWpNU0usd-12">
          <mxGeometry x="-1" relative="1" as="geometry">
            <mxPoint x="560" y="230" as="sourcePoint" />
            <mxPoint x="440" y="300" as="targetPoint" />
            <Array as="points">
              <mxPoint x="560" y="229" />
              <mxPoint x="560" y="228" />
              <mxPoint x="450" y="228" />
              <mxPoint x="450" y="300" />
            </Array>
          </mxGeometry>
        </mxCell>
        <mxCell id="vewTvjoowjofDjpOEqrn-45" value="" style="endArrow=block;endFill=1;html=1;edgeStyle=orthogonalEdgeStyle;align=left;verticalAlign=top;rounded=0;exitX=1;exitY=0.5;exitDx=0;exitDy=0;entryX=-0.031;entryY=-0.017;entryDx=0;entryDy=0;entryPerimeter=0;" edge="1" parent="1" target="zSc0FMV9mbpRWpNU0usd-2">
          <mxGeometry x="-1" relative="1" as="geometry">
            <mxPoint x="194.5" y="450" as="sourcePoint" />
            <mxPoint x="379.5" y="503" as="targetPoint" />
          </mxGeometry>
        </mxCell>
        <mxCell id="vewTvjoowjofDjpOEqrn-46" value="" style="endArrow=block;endFill=1;html=1;edgeStyle=orthogonalEdgeStyle;align=left;verticalAlign=top;rounded=0;exitX=0;exitY=0.5;exitDx=0;exitDy=0;entryX=0.719;entryY=1.065;entryDx=0;entryDy=0;entryPerimeter=0;" edge="1" parent="1" source="zSc0FMV9mbpRWpNU0usd-14" target="zSc0FMV9mbpRWpNU0usd-2">
          <mxGeometry x="-1" relative="1" as="geometry">
            <mxPoint x="530" y="715" as="sourcePoint" />
            <mxPoint x="618.5" y="550" as="targetPoint" />
            <Array as="points">
              <mxPoint x="620" y="448" />
              <mxPoint x="610" y="448" />
              <mxPoint x="610" y="551" />
              <mxPoint x="580" y="551" />
              <mxPoint x="580" y="365" />
            </Array>
          </mxGeometry>
        </mxCell>
      </root>
    </mxGraphModel>
  </diagram>
</mxfile>
